# xmcd CD database file
#
# Track frame offsets:
#	150
#	43867
#	56067
#	71625
#	88620
#	110625
#	126320
#	148867
#	160230
#	182532
#	209952
#	232730
#	258782
#
# Disc length: 3837 seconds
#
# Revision: 2
# Processed by: cddbd v1.5.2PL0 Copyright (c) Steve Scherf et al.
# Submitted via: CDex 1.51
#
DISCID=c30efb0d
DTITLE=The Royal Philharmonic Orchestra - The Best Of The Royal Philharmonic Orchestra CD2
DYEAR=1900
DGENRE=
TTITLE0=Shine On You Crazy Diamonds
TTITLE1=Candle In The Wind
TTITLE2=Many Too Many
TTITLE3=Jesus Christ Superstar I Don'T Know How To Love Him
TTITLE4=Innuendo
TTITLE5=Groovy Kind Of Love
TTITLE6=West Side Story-America
TTITLE7=Starlight Express-There'S Me
TTITLE8=Nothing Compares 2 U
TTITLE9=Song For Guy
TTITLE10=Money
TTITLE11=No Son Of Mine
TTITLE12=Purple Rain
EXTD=
EXTT0=
EXTT1=
EXTT2=
EXTT3=
EXTT4=
EXTT5=
EXTT6=
EXTT7=
EXTT8=
EXTT9=
EXTT10=
EXTT11=
EXTT12=
PLAYORDER=
